<?xml version="1.0" encoding="utf-8"?>
<!-- Generator: Adobe Illustrator 23.1.1, SVG Export Plug-In . SVG Version: 6.00 Build 0)  -->
<svg version="1.1" id="Layer_1" xmlns="http://www.w3.org/2000/svg" xmlns:xlink="http://www.w3.org/1999/xlink" x="0px" y="0px"
	 viewBox="0 0 165.5 39.9" style="enable-background:new 0 0 165.5 39.9;" xml:space="preserve">
<style type="text/css">
	.st0{fill:#4FE468;}
	.st1{fill:#4C5056;}
	.st2{fill:#E60B93;}
	.st3{display:none;}
</style>
<title>lha-logo</title>
<g>
	<g id="Layer_1-2">
		<path class="st0" d="M14.5,28c1.7-1.7,1.3-3.7-1.2-6.3L8.8,17l9.7-9.4c2.6-2.5,3-4.6,1.3-6.5s-3.9-1.5-6.5,1L1,14l0,0.1
			c-1.6,2-1.4,3.5,1.1,6l6.1,6.4C10.7,29.1,12.8,29.6,14.5,28"/>
		<path class="st1" d="M22.3,17.5c0,1.7-1.4,3.1-3.1,3.1c-1.7,0-3.1-1.4-3.1-3.1c0-1.7,1.4-3.1,3.1-3.1C21,14.4,22.3,15.8,22.3,17.5
			"/>
		<path class="st2" d="M24.2,7.5c-1.7,1.7-1.3,3.7,1.2,6.3l4.5,4.6l-9.7,9.4c-2.6,2.5-3,4.6-1.3,6.5s3.9,1.5,6.5-1l12.3-11.9l0-0.1
			c1.6-2,1.4-3.5-1.1-6l-6.1-6.4C28,6.3,26,5.8,24.2,7.5"/>
		<path class="st2" d="M88.9,22.1c0-1-0.8-1.5-2.3-1.5h-2.8v-5.8c0-1.6-0.5-2.3-1.6-2.3s-1.6,0.8-1.6,2.3v7.4h0
			c0.1,1.1,0.7,1.5,2.2,1.5h3.8C88.1,23.6,88.9,23.1,88.9,22.1"/>
		<path class="st2" d="M95,12.4c3.1,0,5.3,2.4,5.3,5.6s-2.2,5.6-5.3,5.6c-2.9,0-5.3-2.3-5.3-5.3c0-0.1,0-0.3,0-0.4
			c-0.2-2.9,2-5.4,5-5.6C94.8,12.4,94.9,12.3,95,12.4 M95,20.6c1.2,0,2.1-1,2.1-2.7c0-1.6-0.9-2.6-2.1-2.6s-2.1,1-2.1,2.6
			C93,19.6,93.8,20.6,95,20.6"/>
		<path class="st2" d="M102.3,14.8c0-1.5,0.5-2.3,1.6-2.3c0.7,0,1.2,0.4,1.5,1c0.7-0.8,1.7-1.1,2.8-1.1c2.5,0,3.8,1.4,3.8,4.2v4.5
			c0,1.5-0.5,2.3-1.6,2.3s-1.6-0.8-1.6-2.3v-3.6c0-1.7-0.4-2.4-1.7-2.4c-1.2,0-1.7,0.8-1.7,2.4v3.6c0,1.5-0.5,2.3-1.6,2.3
			s-1.6-0.8-1.6-2.3L102.3,14.8"/>
		<path class="st2" d="M118.7,23.5c-2.6,0-4.9-2.4-4.9-5.6c0-3.2,2.2-5.6,4.9-5.6c0.9,0,1.8,0.3,2.5,0.9v-2.9c0-1.5,0.5-2.3,1.6-2.3
			c1.1,0,1.6,0.8,1.6,2.3v10.8c0,1.5-0.5,2.3-1.6,2.3c-0.7,0-1.2-0.4-1.5-1C120.6,23.1,119.7,23.5,118.7,23.5 M119.2,20.6
			c1.2,0,2.1-1,2.1-2.6c0-1.7-0.9-2.7-2.1-2.7s-2.1,1-2.1,2.7C117.1,19.5,118,20.6,119.2,20.6"/>
		<path class="st2" d="M131.4,12.4c3.1,0,5.3,2.4,5.3,5.6s-2.2,5.6-5.3,5.6c-2.9,0-5.3-2.3-5.3-5.3c0-0.1,0-0.3,0-0.4
			c-0.2-2.9,2-5.4,5-5.6C131.1,12.4,131.3,12.3,131.4,12.4 M131.4,20.6c1.2,0,2.1-1,2.1-2.7c0-1.6-0.9-2.6-2.1-2.6s-2.1,1-2.1,2.6
			C129.3,19.6,130.2,20.6,131.4,20.6"/>
		<path class="st2" d="M138.6,14.8c0-1.5,0.5-2.3,1.6-2.3c0.7,0,1.2,0.4,1.5,1c0.7-0.8,1.7-1.1,2.8-1.1c2.5,0,3.8,1.4,3.8,4.2v4.5
			c0,1.5-0.5,2.3-1.6,2.3s-1.6-0.8-1.6-2.3v-3.6c0-1.7-0.4-2.4-1.7-2.4c-1.2,0-1.7,0.8-1.7,2.4v3.6c0,1.5-0.5,2.3-1.6,2.3
			s-1.6-0.8-1.6-2.3L138.6,14.8"/>
		<path class="st0" d="M55.2,22c0-1-0.8-1.5-2.3-1.5h-2.8v-5.8c0-1.6-0.5-2.3-1.6-2.3s-1.6,0.8-1.6,2.3V22h0
			c0.1,1.1,0.7,1.5,2.2,1.5h3.8C54.4,23.5,55.2,23,55.2,22"/>
		<path class="st0" d="M62.3,12.4c2.5,0,3.8,1.4,3.8,4.2V21c0,1.5-0.5,2.3-1.6,2.3S63,22.6,63,21v-3.6c0-1.7-0.4-2.4-1.7-2.4
			c-1.2,0-1.7,0.8-1.7,2.4V21c0,1.5-0.5,2.3-1.6,2.3s-1.6-0.8-1.6-2.3V10.3C56.4,8.7,56.9,8,58,8c1.1,0,1.6,0.8,1.6,2.3v3.1
			C60.3,12.6,61.3,12.3,62.3,12.4"/>
		<path class="st0" d="M72.7,23.4c-2.6,0-4.8-2.3-4.8-5.6c0-3.2,2.2-5.6,4.9-5.6c1,0,1.9,0.4,2.5,1.1c0.3-0.6,0.8-1,1.5-1
			c1.1,0,1.6,0.7,1.6,2.3V21c0,1.5-0.5,2.3-1.6,2.3c-0.7,0-1.3-0.4-1.5-1.1C74.7,23,73.8,23.5,72.7,23.4 M73.3,20.4c1.2,0,2-1,2-2.6
			c0-1.5-0.9-2.5-2-2.5s-2,1-2,2.5C71.2,19.4,72.1,20.4,73.3,20.4"/>
		<path class="st1" d="M47.7,33.6h-0.3c-0.3,0-0.6-0.2-0.6-0.5c0,0,0-0.1,0-0.1c0-0.3,0.3-0.6,0.6-0.6c0,0,0,0,0,0h0.3v-0.9
			c0-0.4,0.2-0.8,0.6-0.8c0.4,0,0.8,0.2,0.8,0.6c0,0.1,0,0.1,0,0.2v0.9h0.4c0.4,0,0.7,0.2,0.7,0.6s-0.2,0.7-0.6,0.7c0,0-0.1,0-0.1,0
			h-0.4V37c0,0.4-0.2,0.8-0.6,0.8c-0.4,0-0.8-0.2-0.8-0.6c0-0.1,0-0.1,0-0.2V33.6"/>
		<path class="st1" d="M50.6,30.8c0-0.4,0.2-0.8,0.6-0.8c0.4,0,0.8,0.2,0.8,0.6c0,0.1,0,0.1,0,0.2v2h0c0.3-0.3,0.8-0.5,1.3-0.5
			c1-0.1,1.9,0.7,2,1.7c0,0.1,0,0.2,0,0.2V37c0,0.4-0.2,0.8-0.6,0.8c-0.4,0-0.8-0.2-0.8-0.6c0-0.1,0-0.1,0-0.2v-2.5
			c0-0.5-0.4-1-0.9-1c-0.5,0-1,0.4-1,0.9c0,0,0,0.1,0,0.1V37c0,0.4-0.2,0.8-0.6,0.8c-0.4,0-0.8-0.2-0.8-0.6c0-0.1,0-0.1,0-0.2V30.8"
			/>
		<path class="st1" d="M57.6,35.5c0.1,0.7,0.7,1.1,1.4,1c0.7,0,1.3-0.6,1.6-0.6c0.3,0,0.6,0.3,0.6,0.6c0,0.6-1.3,1.2-2.4,1.2
			c-1.5,0-2.7-1.1-2.7-2.6c0-0.1,0-0.2,0-0.2c-0.1-1.4,1-2.7,2.4-2.8c1.4-0.1,2.7,1,2.8,2.4c0,0.1,0,0.2,0,0.2
			c0,0.4-0.2,0.6-0.6,0.6H57.6 M59.9,34.5c0-0.6-0.5-1.1-1.2-1.1c-0.6,0-1.1,0.5-1.1,1.1H59.9z"/>
		<path class="st1" d="M65,30.8c0-0.4,0.2-0.8,0.6-0.8c0.4,0,0.8,0.2,0.8,0.6c0,0.1,0,0.1,0,0.2v2h0c0.3-0.3,0.8-0.5,1.3-0.5
			c1-0.1,1.9,0.7,2,1.7c0,0.1,0,0.2,0,0.2V37c0,0.4-0.2,0.8-0.6,0.8c-0.4,0-0.8-0.2-0.8-0.6c0-0.1,0-0.1,0-0.2v-2.5
			c0-0.5-0.4-1-0.9-1s-1,0.4-1,0.9c0,0,0,0.1,0,0.1V37c0,0.4-0.2,0.8-0.6,0.8c-0.4,0-0.8-0.2-0.8-0.6c0-0.1,0-0.1,0-0.2L65,30.8"/>
		<path class="st1" d="M72,35.5c0.1,0.7,0.7,1.1,1.4,1c0.7,0,1.3-0.6,1.6-0.6c0.3,0,0.6,0.3,0.6,0.6c0,0.6-1.3,1.2-2.4,1.2
			c-1.5,0-2.7-1.1-2.7-2.6c0-0.1,0-0.2,0-0.2c-0.1-1.4,1-2.7,2.4-2.8c1.4-0.1,2.7,1,2.8,2.4c0,0.1,0,0.2,0,0.2
			c0,0.4-0.2,0.6-0.6,0.6H72 M74.3,34.5c0-0.6-0.5-1.1-1.2-1.1c-0.6,0-1.1,0.5-1.1,1.1H74.3z"/>
		<path class="st1" d="M81.5,36.8c0,0.4,0,0.9-0.7,0.9c-0.4,0-0.6-0.2-0.7-0.6c-0.3,0.4-0.8,0.7-1.4,0.7c-1.4-0.1-2.5-1.3-2.4-2.7
			c0,0,0-0.1,0-0.1c-0.1-1.4,0.9-2.7,2.4-2.8c0,0,0,0,0,0c0.5,0,1.1,0.2,1.4,0.7c0-0.3,0.3-0.6,0.7-0.6c0.7,0,0.7,0.6,0.7,0.9V36.8
			 M78.9,36.5c0.8,0,1.1-0.8,1.1-1.5s-0.4-1.5-1.1-1.5c-0.8,0-1.1,0.8-1.1,1.5S78.1,36.5,78.9,36.5L78.9,36.5z"/>
		<path class="st1" d="M82.6,33c0-0.4,0.3-0.7,0.7-0.7c0,0,0,0,0,0c0.4,0,0.7,0.1,0.7,0.6h0c0.2-0.4,0.6-0.6,1-0.6
			c0.4,0,0.7,0.3,0.7,0.7c0,0,0,0,0,0.1c0,0.5-0.4,0.5-0.9,0.7s-0.9,0.4-0.9,1V37c0,0.4-0.2,0.8-0.6,0.8c-0.4,0-0.8-0.2-0.8-0.6
			c0-0.1,0-0.1,0-0.2L82.6,33"/>
		<path class="st1" d="M87,33.6h-0.3c-0.3,0-0.6-0.2-0.6-0.5c0,0,0-0.1,0-0.1c0-0.3,0.3-0.6,0.6-0.6c0,0,0,0,0,0H87v-0.9
			c0-0.4,0.2-0.8,0.6-0.8c0.4,0,0.8,0.2,0.8,0.6c0,0.1,0,0.1,0,0.2v0.9h0.4c0.4,0,0.7,0.2,0.7,0.6c0,0.4-0.2,0.7-0.6,0.7
			c0,0-0.1,0-0.1,0h-0.4V37c0,0.4-0.2,0.8-0.6,0.8c-0.4,0-0.8-0.2-0.8-0.6c0-0.1,0-0.1,0-0.2L87,33.6"/>
		<path class="st1" d="M97.9,35c0.1,1.4-1,2.7-2.4,2.8c-1.4,0.1-2.7-1-2.8-2.4c0-0.1,0-0.3,0-0.4c-0.1-1.4,1-2.7,2.4-2.8
			c1.4-0.1,2.7,1,2.8,2.4C97.9,34.8,97.9,34.9,97.9,35 M94.1,35c0,0.7,0.4,1.5,1.1,1.5s1.1-0.8,1.1-1.5s-0.4-1.5-1.1-1.5
			S94.1,34.3,94.1,35z"/>
		<path class="st1" d="M99.1,33.6h-0.3c-0.3,0-0.6-0.2-0.6-0.5c0,0,0-0.1,0-0.1c0-0.3,0.3-0.6,0.6-0.6c0,0,0,0,0,0h0.3v-0.7
			c-0.1-0.8,0.5-1.5,1.3-1.6c0.1,0,0.2,0,0.2,0c0.5,0,1,0.2,1,0.7c0,0.4-0.2,0.6-0.6,0.6c-0.2,0-0.5,0-0.5,0.5v0.6h0.5
			c0.4,0,0.7,0.2,0.7,0.6s-0.3,0.6-0.7,0.6h-0.5V37c0,0.4-0.2,0.8-0.6,0.8c-0.4,0-0.8-0.2-0.8-0.6c0-0.1,0-0.1,0-0.2V33.6"/>
		<path class="st1" d="M104.8,32.6c0-0.4,0.3-0.7,0.6-0.7s0.7,0.3,0.7,0.6c0,0,0,0,0,0.1v3.9h1.4c0.3,0,0.6,0.2,0.6,0.5
			c0,0,0,0.1,0,0.1c0,0.3-0.2,0.6-0.6,0.6c0,0-0.1,0-0.1,0h-2c-0.3,0-0.6-0.3-0.7-0.6c0,0,0,0,0,0L104.8,32.6"/>
		<path class="st1" d="M113.7,35c0.1,1.4-1,2.7-2.4,2.8c-1.4,0.1-2.7-1-2.8-2.4c0-0.1,0-0.3,0-0.4c-0.1-1.4,1-2.7,2.4-2.8
			c1.4-0.1,2.7,1,2.8,2.4C113.7,34.8,113.7,34.9,113.7,35 M109.9,35c0,0.7,0.4,1.5,1.1,1.5s1.1-0.8,1.1-1.5s-0.4-1.5-1.1-1.5
			S109.9,34.3,109.9,35z"/>
		<path class="st1" d="M114.5,33.1c0-0.4,0.3-0.8,0.7-0.8c0,0,0,0,0.1,0c0.3,0,0.6,0.2,0.7,0.5c0.3-0.4,0.9-0.7,1.4-0.6
			c1-0.1,1.9,0.7,2,1.7c0,0.1,0,0.2,0,0.2V37c0,0.4-0.2,0.8-0.6,0.8c-0.4,0-0.8-0.2-0.8-0.6c0-0.1,0-0.1,0-0.2v-2.5
			c0-0.5-0.4-1-0.9-1s-1,0.4-1,0.9c0,0,0,0.1,0,0.1V37c0,0.4-0.2,0.8-0.6,0.8c-0.4,0-0.8-0.2-0.8-0.6c0-0.1,0-0.1,0-0.2L114.5,33.1"
			/>
		<path class="st1" d="M125.3,37c0,0.4-0.3,0.8-0.7,0.8c0,0,0,0-0.1,0c-0.4,0-0.7-0.2-0.7-0.6c-0.3,0.4-0.8,0.7-1.3,0.7
			c-1.4-0.1-2.5-1.3-2.4-2.7c0-1.4,0.8-2.9,2.3-2.9c0.5,0,1,0.2,1.4,0.5v-2c0-0.4,0.2-0.8,0.6-0.8c0.4,0,0.8,0.2,0.8,0.6
			c0,0.1,0,0.1,0,0.2L125.3,37 M122.8,33.6c-0.8,0-1.1,0.8-1.1,1.5s0.4,1.5,1.1,1.5c0.8,0,1.1-0.8,1.1-1.5S123.5,33.6,122.8,33.6z"
			/>
		<path class="st1" d="M131.4,35c0.1,1.4-1,2.7-2.4,2.8c-1.4,0.1-2.7-1-2.8-2.4c0-0.1,0-0.3,0-0.4c-0.1-1.4,1-2.7,2.4-2.8
			c1.4-0.1,2.7,1,2.8,2.4C131.4,34.8,131.4,34.9,131.4,35 M127.7,35c0,0.7,0.4,1.5,1.1,1.5s1.1-0.8,1.1-1.5s-0.4-1.5-1.1-1.5
			S127.7,34.3,127.7,35z"/>
		<path class="st1" d="M132.3,33.1c0-0.4,0.3-0.8,0.7-0.8c0,0,0,0,0.1,0c0.3,0,0.6,0.2,0.7,0.5c0.3-0.4,0.9-0.7,1.4-0.6
			c1-0.1,1.9,0.7,2,1.7c0,0.1,0,0.2,0,0.2V37c0,0.4-0.2,0.8-0.6,0.8c-0.4,0-0.8-0.2-0.8-0.6c0-0.1,0-0.1,0-0.2v-2.5
			c0-0.5-0.4-1-0.9-1s-1,0.4-1,0.9c0,0,0,0.1,0,0.1V37c0,0.4-0.2,0.8-0.6,0.8c-0.4,0-0.8-0.2-0.8-0.6c0-0.1,0-0.1,0-0.2L132.3,33.1"
			/>
		<path class="st1" d="M141,32.6c0-0.4,0.3-0.7,0.6-0.7c0.4,0,0.7,0.3,0.7,0.6c0,0,0,0,0,0.1v3.9h1.4c0.3,0,0.6,0.2,0.6,0.5
			c0,0,0,0.1,0,0.1c0,0.3-0.2,0.6-0.6,0.6c0,0-0.1,0-0.1,0h-2c-0.3,0-0.6-0.3-0.7-0.6c0,0,0,0,0,0L141,32.6"/>
		<path class="st1" d="M146.4,30.9c0,0.5-0.4,0.8-0.8,0.8c-0.5,0-0.8-0.4-0.8-0.8c0-0.5,0.4-0.8,0.8-0.8
			C146,30.1,146.4,30.5,146.4,30.9 M144.8,33.1c0-0.4,0.2-0.8,0.6-0.8c0.4,0,0.8,0.2,0.8,0.6c0,0.1,0,0.1,0,0.2V37
			c0,0.4-0.2,0.8-0.6,0.8c-0.4,0-0.8-0.2-0.8-0.6c0-0.1,0-0.1,0-0.2V33.1z"/>
		<path class="st1" d="M147,33.4c-0.1-0.1-0.1-0.3-0.1-0.4c0-0.4,0.3-0.7,0.7-0.7c0,0,0,0,0.1,0c0.3,0,0.6,0.2,0.6,0.5l0.9,2.9h0
			l0.9-2.9c0.1-0.3,0.3-0.5,0.6-0.5c0.4,0,0.7,0.3,0.8,0.6c0,0,0,0,0,0.1c0,0.1,0,0.3-0.1,0.4l-1.5,3.7c-0.1,0.4-0.3,0.6-0.8,0.6
			s-0.6-0.2-0.8-0.6L147,33.4"/>
		<path class="st1" d="M153.8,30.9c0,0.5-0.4,0.8-0.8,0.8c-0.5,0-0.8-0.4-0.8-0.8c0-0.5,0.4-0.8,0.8-0.8
			C153.4,30.1,153.8,30.5,153.8,30.9 M152.2,33.1c0-0.4,0.2-0.8,0.6-0.8c0.4,0,0.8,0.2,0.8,0.6c0,0.1,0,0.1,0,0.2V37
			c0,0.4-0.2,0.8-0.6,0.8c-0.4,0-0.8-0.2-0.8-0.6c0-0.1,0-0.1,0-0.2V33.1z"/>
		<path class="st1" d="M154.7,33.1c0-0.4,0.3-0.8,0.7-0.8c0,0,0,0,0.1,0c0.3,0,0.6,0.2,0.7,0.5c0.3-0.4,0.9-0.7,1.4-0.6
			c1-0.1,1.9,0.7,2,1.7c0,0.1,0,0.2,0,0.2V37c0,0.4-0.2,0.8-0.6,0.8c-0.4,0-0.8-0.2-0.8-0.6c0-0.1,0-0.1,0-0.2v-2.5
			c0-0.5-0.4-1-0.9-1s-1,0.4-1,0.9c0,0,0,0.1,0,0.1V37c0,0.4-0.2,0.8-0.6,0.8c-0.4,0-0.8-0.2-0.8-0.6c0-0.1,0-0.1,0-0.2L154.7,33.1"
			/>
		<path class="st1" d="M165.5,37.3c0.1,1.4-1,2.5-2.3,2.6c-0.2,0-0.3,0-0.5,0c-0.6,0-2.3-0.3-2.3-1.1c0-0.3,0.3-0.6,0.6-0.6
			c0.5,0,1,0.5,1.8,0.5c0.6,0.1,1.2-0.4,1.2-1c0-0.1,0-0.1,0-0.2v-0.3h0c-0.3,0.5-0.9,0.7-1.5,0.7c-1.5,0-2.2-1.3-2.2-2.8
			c-0.1-1.4,0.9-2.7,2.4-2.8c0,0,0,0,0,0c0.5,0,1,0.2,1.3,0.7c0-0.4,0.4-0.6,0.7-0.6c0.4,0,0.7,0.3,0.7,0.7c0,0,0,0,0,0.1
			L165.5,37.3 M163,33.6c-0.8,0-1.1,0.8-1.1,1.5c0,0.8,0.4,1.5,1.1,1.5c0.8,0,1.1-0.7,1.1-1.4S163.8,33.6,163,33.6L163,33.6z"/>
	</g>
</g>
<g id="xS5KnA_1_" class="st3">
	
		<image style="display:inline;overflow:visible;" width="498" height="452" id="xS5KnA_2_" xlink:href="53725BE8F3DE2A77.jpg"  transform="matrix(1 0 0 1 -328.5 -207.6102)">
	</image>
</g>
</svg>
